<?xml version="1.0" encoding="utf-8"?>
<!-- Generator: Adobe Illustrator 25.4.6, SVG Export Plug-In . SVG Version: 6.00 Build 0)  -->
<svg version="1.1" xmlns="http://www.w3.org/2000/svg" xmlns:xlink="http://www.w3.org/1999/xlink" x="0px" y="0px"
	 viewBox="0 0 576 576" style="enable-background:new 0 0 576 576;" xml:space="preserve">
<style type="text/css">
	.st0{fill:#866479;}
	.st1{fill:#B5DBD2;}
	.st2{fill:#AC441E;}
	.st3{clip-path:url(#SVGID_00000118370170223762547420000003610099870930639266_);}
	.st4{clip-path:url(#SVGID_00000022518592464650038870000005630245403837039278_);}
	.st5{fill:#FFFFFF;}
	.st6{clip-path:url(#SVGID_00000165934259350379158580000016305393876440899757_);}
	.st7{clip-path:url(#SVGID_00000043445497059129784770000009293882662186041498_);}
	.st8{display:none;}
	.st9{display:inline;fill:#866479;}
	.st10{display:inline;}
</style>
<g id="Layer_1">
	<path class="st5" d="M491.4,288.4L558,288l-66.6-0.4l-59.3-59.3v-83.8l46.8-47.4l-47.4,46.8h-83.8l-59.3-59.3L288,18l-0.4,66.6
		l-59.3,59.3h-83.8L97.1,97.1l46.8,47.4v83.8l-59.3,59.3L18,288l66.6,0.4l59.3,59.3v83.8l-46.8,47.4l47.4-46.8h83.8l59.3,59.3
		L288,558l0.4-66.6l59.3-59.3h83.8l47.4,46.8l-46.8-47.4v-83.8L491.4,288.4z M438.8,264.2c-4.2,3.8-3.1,9.3-3,9.6l0,0.1
		c0,0-5.1-2.9-10.1,0.1c4.3-3.9,3-9.6,3-9.6l0,0l0,0C428.7,264.3,433.9,267.3,438.8,264.2z M399.2,174.3c2.5,0.1,4.4,2.2,4.2,4.6
		l-0.3,5.3c0.7,1.4,2.4,3.7,5.5,4.2c-2.9,0-4.8,1.6-5.9,2.8l-0.1,3c-0.2,3.4,2,6.4,5.2,7.4l-11.2-0.3c-3.8-0.2-6.7-3.4-6.6-7.2
		l0.6-11.7c0.2-4-2.4-7.7-6.3-8.7L399.2,174.3z M377.9,164.5c-0.3,5.6,4.4,8.7,4.7,8.9l0.1,0c0,0-5.7,1.6-7.1,7.2
		c0.3-5.8-4.7-8.9-4.7-8.9l0,0l0,0C370.8,171.7,376.5,170.2,377.9,164.5z M344.9,181.2c2.9-6.2,9.3-10.3,16.5-9.9l7.9,0.4
		c-8.2,1.1-14.7,7.8-15.2,16.3c-0.3,4.6,1.3,9.1,4.4,12.6c2.3,2.5,5.1,4.3,8.3,5.2l9.3,0.5c10.4,0.6,18.6,8.7,19.6,18.8
		c0.7,1.7,2.7,5,6.8,6c-4.1-0.2-6.8,2.2-8.1,3.6c-3.2,8.2-11.3,13.8-20.6,13.2l-9.6-0.5c9.9-1.3,17.9-9.5,18.5-19.9
		c0.3-5.7-1.6-11.1-5.4-15.3c-2.8-3.1-6.3-5.2-10.2-6.3l-7.6-0.4c-8.6-0.5-15.3-7.2-16.1-15.5c-0.3-0.9-1.6-4.5-5.5-5.5
		C341.9,184.8,344.3,182,344.9,181.2z M374.8,295.8c-3.1-2.6-7-1.5-7.7-1.3c-3.3,4-3.7,9.8-0.7,14.2c2.5,2.3,4.2,5.6,4.2,9.2v7.9
		c-0.5-2.5-1.7-4.8-3.5-6.6c-2.4-2.4-5.5-3.7-8.9-3.7c-3.4,0-6.5,1.3-8.9,3.7c-1.8,1.8-3,4.1-3.5,6.6V318c0-6.8,5.6-12.4,12.4-12.4
		c3.2,0,6,1.2,8.2,3.1l-4.9-4.9c-6.3-6.3-6.3-16.6,0-22.9l4.9-4.9c0.2-0.6,1.5-4.5-1.3-7.8c3.1,2.6,6.9,1.5,7.7,1.3
		c3-3.5,3.4-8.6,0.9-12.6l4,4c6.3,6.3,6.3,16.6,0,22.9l-4.1,4.1C373.5,288.2,371.9,292.4,374.8,295.8z M325.1,367.6l-5.6,5.6
		c1.4-2.1,2.2-4.5,2.2-7.1c0-3.4-1.3-6.5-3.7-8.9c-2.4-2.4-5.5-3.7-8.9-3.7c-2.6,0-5,0.8-7.1,2.2l5.6-5.6c4.8-4.8,12.7-4.8,17.5,0v0
		c2.2,2.2,3.4,5.1,3.6,8v-6.9c0-8.9,7.2-16.2,16.2-16.2h7c0.5-0.3,4.2-2.2,4.6-6.4c0.4,4.1,3.8,6,4.6,6.4c4.6-0.3,8.5-3.7,9.5-8.3
		v5.6c0,8.9-7.2,16.2-16.2,16.2h-5.8c-0.2,0.1-4.3,2-4.7,6.4c-0.4-4.1-3.8-6-4.6-6.4c-5.2,0.5-9.5,4.4-10.6,9.6
		C328.9,361.5,327.7,365,325.1,367.6z M281.4,367.1c-4-3.3-9.8-3.7-14.2-0.7c-2.3,2.5-5.6,4.2-9.2,4.2h-7.9c2.5-0.5,4.8-1.7,6.6-3.5
		c2.4-2.4,3.7-5.5,3.7-8.9c0-3.4-1.3-6.5-3.7-8.9c-1.8-1.8-4.1-3-6.6-3.5h7.9c6.8,0,12.4,5.6,12.4,12.4c0,3.2-1.2,6-3.1,8.2l4.9-4.9
		c6.3-6.3,16.6-6.3,22.9,0l4.9,4.9c0.6,0.2,4.5,1.5,7.8-1.3c-2.6,3.1-1.5,6.9-1.3,7.7c3.5,3,8.6,3.4,12.6,0.9h0l-4,4
		c-6.3,6.3-16.6,6.3-22.9,0l-4.1-4.1c-0.2-0.1-4.4-1.6-7.8,1.2C282.8,371.7,281.7,367.9,281.4,367.1z M214.5,272.1
		c6.3,6.3,6.3,16.6,0,22.9l-4.9,4.9c-0.2,0.6-1.5,4.5,1.3,7.8c-3.1-2.6-6.9-1.5-7.7-1.3c-3,3.5-3.4,8.6-0.9,12.6l-4-4
		c-6.3-6.3-6.3-16.6,0-22.9l4.1-4.1c0.1-0.2,1.6-4.4-1.2-7.8c3.1,2.6,7,1.5,7.7,1.3c3.3-4,3.7-9.8,0.7-14.2
		c-2.5-2.3-4.2-5.6-4.2-9.2v-7.9c0.5,2.5,1.7,4.8,3.5,6.6c2.4,2.4,5.5,3.7,8.9,3.7c3.4,0,6.5-1.3,8.9-3.7c1.8-1.8,3-4.1,3.5-6.6v7.9
		c0,6.8-5.6,12.4-12.4,12.4c-3.2,0-6-1.2-8.2-3.1L214.5,272.1z M224.1,240.9c-0.5,0.3-4.2,2.2-4.6,6.4c-0.4-4.1-3.8-6-4.6-6.4
		c-4.6,0.3-8.5,3.7-9.5,8.3v-5.6c0-8.9,7.2-16.2,16.2-16.2h5.8c0.2-0.1,4.3-2,4.7-6.4c0.4,4.1,3.8,6,4.6,6.4
		c5.2-0.5,9.5-4.4,10.6-9.6c-0.2-3.4,1-6.9,3.6-9.5l5.6-5.6c-1.4,2.1-2.2,4.5-2.2,7.1c0,3.4,1.3,6.5,3.7,8.9
		c2.4,2.4,5.5,3.7,8.9,3.7c2.6,0,5-0.8,7.1-2.2l-5.6,5.6c-4.8,4.8-12.7,4.8-17.5,0c-2.2-2.2-3.4-5.1-3.6-8l0,6.9
		c0,8.9-7.2,16.2-16.2,16.2H224.1z M294.6,208.9c4,3.3,9.8,3.7,14.2,0.7c2.3-2.5,5.6-4.2,9.2-4.2h7.9c-2.5,0.5-4.8,1.7-6.6,3.5
		c-2.4,2.4-3.7,5.5-3.7,8.9c0,3.4,1.3,6.5,3.7,8.9c1.8,1.8,4.1,3,6.6,3.5H318c-6.8,0-12.4-5.6-12.4-12.4h0c0-3.2,1.2-6,3.1-8.2
		l-4.9,4.9c-6.3,6.3-16.6,6.3-22.9,0l-4.9-4.9c-0.6-0.2-4.5-1.5-7.8,1.3c2.6-3.1,1.5-6.9,1.3-7.7c-3.5-3-8.6-3.4-12.6-0.9l4-4
		c6.3-6.3,16.6-6.3,22.9,0l4.1,4.1c0.2,0.1,4.4,1.6,7.8-1.2C293.2,204.3,294.3,208.1,294.6,208.9z M280.2,306.9h-11.1v-11.1
		l-7.8-7.8l7.8-7.8v-11.1h11.1l7.8-7.8l7.8,7.8h11.1v11.1l7.8,7.8l-7.8,7.8v11.1h-11.1l-7.8,7.8L280.2,306.9z M286.7,334.3
		l-12.6-12.6h-17.9l11.7-11.6h10.9l7.7,7.7L286.7,334.3z M265.9,267.9v10.9l-7.7,7.7l-16.5,0.1l12.6-12.6v-17.9L265.9,267.9z
		 M256.2,254.3h17.9l12.6-12.6l-0.1,16.5l-7.7,7.7h-10.9L256.2,254.3z M289.3,241.7l12.6,12.6h17.9l-11.7,11.6h-10.9l-7.7-7.7
		L289.3,241.7z M289.4,317.8l7.7-7.7h10.9l11.7,11.6h-17.9l-12.6,12.6L289.4,317.8z M310.1,308.1v-10.9l7.7-7.7l16.5-0.1l-12.6,12.6
		v17.9L310.1,308.1z M317.8,286.6l-7.7-7.7v-10.9l11.6-11.7v17.9l12.6,12.6L317.8,286.6z M258.2,289.4l7.7,7.7v10.9l-11.6,11.7
		v-17.9l-12.6-12.6L258.2,289.4z M348.5,221.6v5.8c0.1,0.2,2,4.3,6.4,4.7c-4.1,0.4-6,3.8-6.4,4.6c0.5,5.2,4.4,9.5,9.6,10.6
		c3.4-0.2,6.9,1,9.5,3.6l5.6,5.6c-2.1-1.4-4.5-2.2-7.1-2.2c-3.4,0-6.5,1.3-8.9,3.7c-2.4,2.4-3.7,5.5-3.7,8.9c0,2.6,0.8,5,2.2,7.1
		l-5.6-5.6c-4.8-4.8-4.8-12.7,0-17.5c2.2-2.2,5.1-3.4,8-3.6h-6.9c-8.9,0-16.2-7.2-16.2-16.2v-7c-0.3-0.5-2.2-4.2-6.4-4.6
		c4.1-0.4,6-3.8,6.4-4.6c-0.3-4.6-3.7-8.5-8.3-9.5h5.6C341.3,205.5,348.5,212.7,348.5,221.6z M286.2,128.9c1.8-1.7,4.6-1.5,6.3,0.3
		l3.6,3.9c1.5,0.4,4.3,0.9,6.9-0.9c-2,2-2.3,4.6-2.2,6.2l2,2.2c2.3,2.5,6,3.1,8.9,1.5l-8.1,7.7c-2.8,2.6-7.2,2.3-9.7-0.5l-7.9-8.7
		c-2.7-3-7.1-3.7-10.6-1.7L286.2,128.9z M273.8,140.2L273.8,140.2c0.1,0-2.9,5.1,0.2,10.1c-3.9-4.3-9.6-3-9.6-3l0,0l0,0
		c0,0,2.9-5.1-0.1-10.1C267.9,141.3,273.4,140.3,273.8,140.2z M252.7,172.2c-2.4-6.4-0.8-13.9,4.6-18.7l5.9-5.3
		c-5,6.5-4.9,15.9,0.8,22.3c3.1,3.5,7.4,5.5,12,5.8c3.4,0.2,6.6-0.6,9.5-2.2l7-6.2c7.8-7,19.3-7,27.1-0.6c1.7,0.7,5.5,1.7,9.1-0.6
		c-3,2.7-3.3,6.4-3.2,8.3c3.5,8,1.7,17.7-5.2,23.9l-7.2,6.4c6.1-7.9,5.9-19.4-1-27.1c-3.8-4.2-9-6.7-14.6-7
		c-4.1-0.2-8.2,0.8-11.7,2.8l-5.7,5.1c-6.4,5.7-15.9,5.7-22.3,0.4c-0.9-0.5-4.3-2-7.7,0C253.1,176.9,252.9,173.3,252.7,172.2z
		 M206.2,199.8c0.6-10.4,8.7-18.6,18.8-19.6c1.7-0.7,5-2.7,6-6.8c-0.2,4.1,2.2,6.8,3.6,8.1c8.2,3.2,13.8,11.3,13.2,20.6l-0.5,9.6
		c-1.3-9.9-9.5-17.9-19.9-18.5c-5.7-0.3-11.1,1.6-15.3,5.4c-3.1,2.8-5.2,6.3-6.3,10.2l-0.4,7.6c-0.5,8.6-7.2,15.3-15.5,16.1
		c-0.9,0.3-4.5,1.6-5.5,5.5c0.3-3.9-2.4-6.3-3.3-7c-6.2-2.9-10.3-9.3-9.9-16.5l0.4-7.9c1.1,8.2,7.8,14.7,16.3,15.2
		c4.6,0.3,9.1-1.3,12.6-4.4c2.5-2.3,4.3-5.1,5.2-8.3L206.2,199.8z M174.3,176.8c0.1-2.5,2.2-4.4,4.6-4.2l5.3,0.3
		c1.4-0.7,3.7-2.4,4.2-5.5c0,2.9,1.6,4.8,2.8,5.9l3,0.1c3.4,0.2,6.4-2,7.4-5.2l-0.3,11.2c-0.2,3.8-3.4,6.7-7.2,6.6l-11.7-0.6
		c-4-0.2-7.7,2.4-8.7,6.3L174.3,176.8z M173.3,193.7l0.2-0.3c0,0,1.6,5.7,7.2,7.1c-5.8-0.3-8.9,4.7-8.9,4.7l0,0l0,0
		c0,0-1.6-5.7-7.2-7.1C169.6,198.4,172.6,194.7,173.3,193.7z M129.2,283.5l3.9-3.6c0.4-1.5,0.9-4.3-0.9-6.9c2,2,4.6,2.3,6.2,2.2
		l2.2-2c2.5-2.3,3.1-6,1.5-8.9l7.7,8.1c2.6,2.8,2.3,7.2-0.5,9.7l-8.7,7.9c-3,2.7-3.7,7.1-1.7,10.6l-10.1-10.9
		C127.2,288,127.4,285.2,129.2,283.5z M137.2,311.8c4-3.6,3.1-8.8,3-9.6l0-0.1c0,0,5.1,2.9,10.1-0.1c-4.3,3.9-3,9.6-3,9.6l0,0l0,0
		C147.3,311.7,142.1,308.7,137.2,311.8z M153.5,318.6l-5.3-5.9c6.5,5,15.9,4.9,22.3-0.8c3.5-3.1,5.5-7.4,5.8-12
		c0.2-3.4-0.6-6.6-2.2-9.5l-6.2-7c-7-7.8-7-19.3-0.6-27.1c0.7-1.7,1.7-5.5-0.6-9.1c2.7,3,6.4,3.3,8.3,3.2c8-3.5,17.7-1.7,23.9,5.2
		l6.4,7.2c-7.9-6.1-19.4-5.9-27.1,1c-4.2,3.8-6.7,9-7,14.6c-0.2,4.1,0.8,8.2,2.8,11.7l5.1,5.7c5.7,6.4,5.7,15.9,0.4,22.3
		c-0.5,0.9-2,4.3,0,7.7c-2.5-3-6.2-2.7-7.2-2.6C165.8,325.6,158.3,324,153.5,318.6z M176.8,401.7c-2.5-0.1-4.4-2.2-4.2-4.6l0.3-5.3
		c-0.7-1.4-2.4-3.7-5.5-4.2c2.9,0,4.8-1.6,5.9-2.8l0.1-3c0.2-3.4-2-6.4-5.2-7.4l11.2,0.3c3.8,0.2,6.7,3.4,6.6,7.2l-0.6,11.7
		c-0.2,4,2.4,7.7,6.3,8.7L176.8,401.7z M198.1,411.5c0.3-5.4-4.1-8.5-4.6-8.9l-0.1,0c0,0,5.7-1.6,7.1-7.2c-0.3,5.8,4.7,8.9,4.7,8.9
		l0,0l0,0C205.2,404.3,199.5,405.8,198.1,411.5z M231.1,394.8c-2.9,6.2-9.3,10.3-16.5,9.9l-7.9-0.4c8.2-1.1,14.7-7.8,15.2-16.3
		c0.3-4.6-1.3-9.1-4.4-12.6c-2.3-2.5-5.1-4.3-8.3-5.2l-9.3-0.5c-10.4-0.6-18.6-8.7-19.6-18.8c-0.7-1.7-2.7-5-6.8-6
		c4.1,0.2,6.8-2.2,8.1-3.6c3.2-8.2,11.3-13.8,20.6-13.2l9.6,0.5c-9.9,1.3-17.9,9.5-18.5,19.9c-0.3,5.7,1.6,11.1,5.4,15.3
		c2.8,3.1,6.3,5.2,10.2,6.3l7.6,0.4c8.6,0.5,15.3,7.2,16.1,15.5c0.3,0.9,1.6,4.5,5.5,5.5C234.1,391.2,231.7,394,231.1,394.8z
		 M227.5,354.4v-5.8c-0.1-0.2-2-4.3-6.4-4.7c4.1-0.4,6-3.8,6.4-4.6c-0.5-5.2-4.4-9.5-9.6-10.6c-3.4,0.2-6.9-1-9.5-3.6l-5.6-5.6
		c2.1,1.4,4.5,2.2,7.1,2.2c3.4,0,6.5-1.3,8.9-3.7c2.4-2.4,3.7-5.5,3.7-8.9c0-2.6-0.8-5-2.2-7.1l5.6,5.6c4.8,4.8,4.8,12.7,0,17.5
		c-2.2,2.2-5.1,3.4-8,3.6h6.9c8.9,0,16.2,7.2,16.2,16.2v7c0.3,0.5,2.2,4.2,6.4,4.6c-4.1,0.4-6,3.8-6.4,4.6c0.3,4.6,3.7,8.5,8.3,9.5
		h-5.6C234.7,370.5,227.5,363.3,227.5,354.4z M289.8,447.1c-1.8,1.7-4.6,1.5-6.3-0.3l-3.6-3.9c-1.5-0.4-4.3-0.9-6.9,0.9
		c2-2,2.3-4.6,2.2-6.2l-2-2.2c-2.3-2.5-6-3.1-8.9-1.5l8.1-7.7c2.8-2.6,7.2-2.3,9.7,0.5l7.9,8.7c2.7,3,7.1,3.7,10.6,1.7L289.8,447.1z
		 M302.2,435.8L302.2,435.8c-0.1,0,2.9-5.1-0.1-10.1c3.9,4.3,9.6,3,9.6,3l0,0l0,0c0,0-2.9,5.1,0.1,10.1
		C308,434.6,302.4,435.8,302.2,435.8z M323.3,403.8c2.4,6.4,0.8,13.9-4.6,18.7l-5.9,5.3c5-6.5,4.9-15.9-0.8-22.3
		c-3.1-3.5-7.4-5.5-12-5.8c-3.4-0.2-6.6,0.6-9.5,2.2l-7,6.2c-7.8,7-19.3,7-27.1,0.6c-1.7-0.7-5.5-1.7-9.1,0.6c3-2.7,3.3-6.4,3.2-8.3
		c-3.5-8-1.7-17.7,5.2-23.9l7.2-6.4c-6.1,7.9-5.9,19.4,1,27.1c3.8,4.2,9,6.7,14.6,7c4.1,0.2,8.2-0.8,11.7-2.8l5.7-5.1
		c6.4-5.7,15.9-5.7,22.3-0.4c0.9,0.5,4.3,2,7.7,0C322.9,399.1,323.1,402.7,323.3,403.8z M369.8,376.2c-0.6,10.4-8.7,18.6-18.8,19.6
		c-1.7,0.7-5,2.7-6,6.8c0.2-4.1-2.2-6.8-3.6-8.1c-8.2-3.2-13.8-11.3-13.2-20.6l0.5-9.6c1.3,9.9,9.5,17.9,19.9,18.5
		c5.7,0.3,11.1-1.6,15.3-5.4c3.1-2.8,5.2-6.3,6.3-10.2l0.4-7.6c0.5-8.6,7.2-15.3,15.5-16.1c0.9-0.3,4.5-1.6,5.5-5.5
		c-0.3,3.9,2.4,6.3,3.3,7c6.2,2.9,10.3,9.3,9.9,16.5l-0.4,7.9c-1.1-8.2-7.8-14.7-16.3-15.2c-4.6-0.3-9.1,1.3-12.6,4.4
		c-2.5,2.3-4.3,5.1-5.2,8.3L369.8,376.2z M401.7,399.2c-0.1,2.5-2.2,4.4-4.6,4.2l-5.3-0.3c-1.4,0.7-3.7,2.4-4.2,5.5
		c0-2.9-1.6-4.8-2.8-5.9l-3-0.1c-3.4-0.2-6.4,2-7.4,5.2l0.3-11.2c0.2-3.8,3.4-6.7,7.2-6.6l11.7,0.6c4,0.2,7.7-2.4,8.7-6.3
		L401.7,399.2z M402.6,382.5L402.6,382.5c0,0.1-1.6-5.7-7.2-7c5.8,0.3,8.9-4.7,8.9-4.7l0,0l0,0c0,0,1.6,5.7,7.2,7.1
		C405.9,377.5,402.8,382.2,402.6,382.5z M402,285.6l6.2,7c7,7.8,7,19.3,0.6,27.1c-0.7,1.7-1.7,5.5,0.6,9.1c-2.7-3-6.4-3.3-8.3-3.2
		c-8,3.5-17.7,1.7-23.9-5.2l-6.4-7.2c7.9,6.1,19.4,5.9,27.1-1c4.2-3.8,6.7-9,7-14.6c0.2-4.1-0.8-8.2-2.8-11.7l-5.1-5.7
		c-5.7-6.4-5.7-15.9-0.4-22.3c0.5-0.9,2-4.3,0-7.7c2.5,3,6.2,2.7,7.2,2.6c6.4-2.4,13.9-0.8,18.7,4.6l5.3,5.9
		c-6.5-5-15.9-4.9-22.3,0.8c-3.5,3.1-5.5,7.4-5.8,12C399.6,279.5,400.3,282.7,402,285.6z M426.2,303.7c-2.6-2.8-2.3-7.2,0.5-9.7
		l8.7-7.9c3-2.7,3.7-7.1,1.7-10.6l10.1,10.9c1.7,1.8,1.5,4.6-0.3,6.3l-3.9,3.6c-0.4,1.5-0.9,4.3,0.9,6.9c-2-2-4.6-2.3-6.2-2.2
		l-2.2,2c-2.5,2.3-3.1,6-1.5,8.9L426.2,303.7z"/>
</g>
<g id="Lab" class="st8">
</g>
</svg>
